inDegrees=yes
name=ik_S40_A13_T01
DataType=double
version=3
OpenSimVersion=4.3-2021-08-27-4bc7ad9
endheader
time	pelvis_tilt	pelvis_list	pelvis_rotation	pelvis_tx	pelvis_ty	pelvis_tz	hip_flexion_r	hip_adduction_r	hip_rotation_r	knee_angle_r	knee_angle_r_beta	ankle_angle_r	subtalar_angle_r	mtp_angle_r	hip_flexion_l	hip_adduction_l	hip_rotation_l	knee_angle_l	knee_angle_l_beta	ankle_angle_l	subtalar_angle_l	mtp_angle_l	lumbar_extension	lumbar_bending	lumbar_rotation	arm_flex_r	arm_add_r	arm_rot_r	elbow_flex_r	pro_sup_r	wrist_flex_r	wrist_dev_r	arm_flex_l	arm_add_l	arm_rot_l	elbow_flex_l	pro_sup_l	wrist_flex_l	wrist_dev_l
4.499999999999992	-0.6710498572772133	0.2341260543293366	27.42744478725375	0	0.9399999999999999	0	19.24506997287441	-7.339838936614103	-6.144213174540545	21.95934903559373	0.383262942265752	0	0	0	19.24506997287441	-7.339838936614103	-6.144213174540545	21.95934903559373	0.383262942265752	0	0	0	0.4275963506324558	1.12461569519186	8.814928920227091	52.78295159959074	-21.47927098772826	55.6729971665838	30.36825750108206	179.9693473645652	0	0	88.34201333710648	4.93284357163462	37.72815877355552	13.47809343153667	145.0649273289703	0	0
4.519999999999992	-0.6707112096933876	0.2311424190003623	27.40781356846102	0	0.9399999999999999	0	19.24132727419251	-7.341695012634687	-6.144722749343032	21.94978442633271	0.3830960083424806	0	0	0	19.24132727419251	-7.341695012634687	-6.144722749343032	21.94978442633271	0.3830960083424806	0	0	0	0.4311043018908758	1.115610236409638	8.854694577308894	51.8904140138738	-21.70475232167776	58.0522674420376	30.1941189060912	179.9669852993614	0	0	88.46524410521543	4.834795755176322	37.68499911965543	13.72024625008739	145.3089137947641	0	0
4.539999999999991	-0.6790729174531344	0.1961089383825767	27.49903132689724	0	0.9399999999999999	0	19.24591835393678	-7.343150298774264	-6.146083624417914	21.95450078738101	0.3831783243714862	0	0	0	19.24591835393678	-7.343150298774264	-6.146083624417914	21.95450078738101	0.3831783243714862	0	0	0	0.4087422999998397	1.086857472289967	8.812162888119012	51.40054139823371	-21.92045428184497	58.61936796037322	30.19044908008626	179.9658890316129	0	0	88.53108631807127	4.88689675785182	37.71472165701459	13.7867177581016	145.2606989296222	0	0
4.559999999999991	-0.7003997451748336	0.217794432868792	27.59576396503112	0	0.9399999999999999	0	19.25375559026757	-7.345592819828874	-6.148384033980237	21.96266079969346	0.3833207434533418	0	0	0	19.25375559026757	-7.345592819828874	-6.148384033980237	21.96266079969346	0.3833207434533418	0	0	0	0.4014530861509737	1.114760995445155	8.688699140998807	51.18992011627211	-22.0545159557622	58.48517273681863	30.23490108616153	179.9646612608119	0	0	88.69156745499706	4.602136745394866	37.75313359834203	13.87153615362666	144.850063279845	0	0
4.57999999999999	-0.7272927757606529	0.2251981525267195	27.43945203990858	0	0.9399999999999999	0	19.26940432204346	-7.350586840661421	-6.15304182527448	21.97863234107015	0.3835994994369834	0	0	0	19.26940432204346	-7.350586840661421	-6.15304182527448	21.97863234107015	0.3835994994369834	0	0	0	0.3808832570996056	1.13364896222291	8.769518569618365	51.24804348701023	-22.06773712147456	57.58797001170809	30.38781419643976	179.9631713547841	0	0	88.72578969681868	4.530543621409372	37.7440364543703	13.80682840287131	144.3783541208693	0	0
4.59999999999999	-0.7432396370242325	0.2233681805332765	27.32645268057066	0	0.9399999999999999	0	19.40153490314959	-7.382996567132149	-6.187064015093072	22.13889282300946	0.3863965725076574	0	0	0	19.40153490314959	-7.382996567132149	-6.187064015093072	22.13889282300946	0.3863965725076574	0	0	0	0.3570709486328243	1.147518016846781	8.843228610150112	52.03101279170752	-22.42239664220694	54.71803514161361	31.06796482750428	179.9652894119228	0	0	88.76410898867918	4.320592719107261	37.84746583484106	13.88055645253282	144.0227776619877	0	0
4.619999999999989	-0.763172208722682	0.236573000139012	27.25913727723026	0	0.9399999999999999	0	19.46972381558214	-7.400188428024245	-6.204849088352082	22.22153184175575	0.3878388954753974	0	0	0	19.46972381558214	-7.400188428024245	-6.204849088352082	22.22153184175575	0.3878388954753974	0	0	0	0.3444826580566771	1.168079872027198	8.843508026263219	52.74799382196086	-22.52391231186714	52.47016341703618	31.72505946747732	179.9643294810572	0	0	88.75848127475147	4.287249617435052	37.63936384655912	13.93674922905377	144.1656434438711	0	0
4.639999999999989	-0.7670969463260476	0.2416327020279744	27.12517412672977	0	0.9399999999999999	0	19.62018746332317	-7.436218846104936	-6.243142824700621	22.40437098483654	0.3910300405236821	0	0	0	19.62018746332317	-7.436218846104936	-6.243142824700621	22.40437098483654	0.3910300405236821	0	0	0	0.3339569377739047	1.182382926698948	8.89309200501498	53.65174581356592	-22.53336316352976	49.6215901894269	33.60449621443283	179.9553882786391	0	0	88.70499434117718	4.293282646583648	37.49871156087727	14.00150157512566	144.4061765770943	0	0
4.659999999999989	-0.7853234103970752	0.259490580558705	27.03969772256744	0	0.9399999999999999	0	19.6253687883593	-7.437804469077733	-6.244651772979177	22.40974525044199	0.391123839153374	0	0	0	19.6253687883593	-7.437804469077733	-6.244651772979177	22.40974525044199	0.391123839153374	0	0	0	0.3249434770957472	1.206915448502826	8.89239478612048	53.69757420532107	-22.49647933470622	49.7280337752309	33.60759145795996	179.9553805203392	0	0	88.57603576391014	4.363668871261147	37.40566516457231	14.00657802107606	144.5433315737477	0	0
4.679999999999988	-0.762807595990928	0.261079052416584	26.92511829757908	0	0.9399999999999999	0	19.82759782288826	-7.484422294790037	-6.295160199281619	22.6575711654165	0.3954492173414467	0	0	0	19.82759782288826	-7.484422294790037	-6.295160199281619	22.6575711654165	0.3954492173414467	0	0	0	0.3360465274684187	1.202544796371154	8.971128737984689	55.25843773012438	-22.4372989484079	46.02762244505952	35.29588480272616	179.951394452297	0	0	88.37704702887173	4.475552472726037	37.3480367434309	14.10277055244911	144.8030143808145	0	0
4.699999999999988	-0.7664908860814238	0.2398571960658471	26.78720558082479	0	0.9399999999999999	0	19.83692931132774	-7.487315661525534	-6.297902487562626	22.66705265701123	0.3956147005877749	0	0	0	19.83692931132774	-7.487315661525534	-6.297902487562626	22.66705265701123	0.3956147005877749	0	0	0	0.3250129465736118	1.181956735804734	9.068757410524592	55.82788865979492	-22.22767479646167	44.60533155076764	36.54448164718219	179.9431085222458	0	0	88.20007896149714	4.602221236092468	37.29059922201958	14.24865828636093	145.0140209107868	0	0
4.719999999999987	-0.7387795777189529	0.2506055845860679	26.70909454134219	0	0.9399999999999999	0	19.85105020579438	-7.491696961462409	-6.30205443735005	22.68138324412222	0.3958648165166056	0	0	0	19.85105020579438	-7.491696961462409	-6.30205443735005	22.68138324412222	0.3958648165166056	0	0	0	0.3554800732371606	1.17770937696245	9.137316781233062	56.18773244207515	-22.01936162735175	43.5720538474212	38.06515453844045	179.9300670337509	0	0	87.89178353697717	4.79006330700655	37.11558908941647	14.50724715971209	145.3428301977548	0	0
4.739999999999987	-0.7347904200558359	0.2430847751588804	26.64154969365356	0	0.9399999999999999	0	19.8688685498284	-7.497215076095403	-6.307288866238712	22.69947581189999	0.3961805913944678	0	0	0	19.8688685498284	-7.497215076095403	-6.307288866238712	22.69947581189999	0.3961805913944678	0	0	0	0.3557936676822078	1.168771964415798	9.201545882556466	56.64474750088952	-21.73260204637348	42.75511574421538	39.5299885443674	179.9071090088438	0	0	87.51558007784136	5.056715008780459	36.63503896838616	14.99563896074739	146.0414113111842	0	0
4.759999999999986	-0.7103178428073105	0.2372520405988379	26.59516840887711	0	0.9399999999999999	0	19.88359546891447	-7.501768309985948	-6.311611906373831	22.71443394981326	0.3964416601510218	0	0	0	19.88359546891447	-7.501768309985948	-6.311611906373831	22.71443394981326	0.3964416601510218	0	0	0	0.3748702047181985	1.152308590343193	9.249900741444286	57.13109784945581	-21.44962419166316	42.07399910161276	40.86606385770367	179.8704906467206	0	0	87.10077947495203	5.298145098856264	36.5331034650684	15.56612711453067	146.1869572400426	0	0
4.779999999999986	-0.6951943813394702	0.2269637143173454	26.64856377483001	0	0.9399999999999999	0	19.8982334189965	-7.506290087626719	-6.315907437582624	22.72929894583514	0.3967011032748995	0	0	0	19.8982334189965	-7.506290087626719	-6.315907437582624	22.72929894583514	0.3967011032748995	0	0	0	0.3832370059514592	1.136093591394094	9.231977472953142	57.68851003606763	-21.14293019925856	41.4995426514211	42.19813422492837	179.7985608930789	0	0	86.75658744477185	5.493274091391115	36.47248790780674	15.87881708582447	146.2163616518007	0	0
4.799999999999986	-0.6822192289845412	0.2301185494436049	26.72801260343727	0	0.9399999999999999	0	19.91432968136843	-7.511261879456103	-6.320631620654908	22.74563004081798	0.396986134652806	0	0	0	19.91432968136843	-7.511261879456103	-6.320631620654908	22.74563004081798	0.396986134652806	0	0	0	0.3956948659784602	1.132479886378401	9.169681446702628	58.27611480860096	-20.79771725310693	41.14454645612985	43.44611514471593	179.6483453310867	0	0	86.41157086609411	5.641229527644498	36.37807956600642	16.1574423093967	146.0015234844142	0	0
